<svg xmlns="http://www.w3.org/2000/svg" xmlns:xlink="http://www.w3.org/1999/xlink" width="491.971" height="230" viewBox="0 0 491.971 230"><defs><style>.a{fill:rgba(0,0,0,0);stroke:rgba(0,0,0,0);}.b{fill:#d2d2d2;}.c{fill:url(#a);}.d{fill:#6b8e23;font-size:53px;font-family:JosefinSans-Bold, Josefin Sans;font-weight:700;}.e{font-size:39px;}.f{font-family:JosefinSans-Regular, Josefin Sans;font-weight:400;}.g{stroke:none;}.h{fill:none;}.i{filter:url(#d);}.j{filter:url(#b);}</style><linearGradient id="a" x1="0.573" y1="0.655" x2="0.576" y2="-0.038" gradientUnits="objectBoundingBox"><stop offset="0" stop-color="#6b8e23"/><stop offset="1" stop-color="#fff"/></linearGradient><filter id="b" x="0" y="0" width="211.986" height="230" filterUnits="userSpaceOnUse"><feOffset dy="3" input="SourceAlpha"/><feGaussianBlur stdDeviation="5" result="c"/><feFlood/><feComposite operator="in" in2="c"/><feComposite in="SourceGraphic"/></filter><filter id="d" x="201.971" y="6.16" width="290" height="216" filterUnits="userSpaceOnUse"><feOffset dy="3" input="SourceAlpha"/><feGaussianBlur stdDeviation="3" result="e"/><feFlood flood-opacity="0.129"/><feComposite operator="in" in2="e"/><feComposite in="SourceGraphic"/></filter></defs><g transform="translate(-1989.029 -4898.84)"><g transform="translate(2004 4910.84)"><g class="a" transform="translate(0 0.16)"><rect class="g" width="182.04" height="199.68"/><rect class="h" x="0.5" y="0.5" width="181.04" height="198.68"/></g><path class="b" d="M314.5,215q2.8,1.3,1.5,6.5l-2-1,1-3Z" transform="translate(-171.246 -125.251)"/><g class="j" transform="matrix(1, 0, 0, 1, -14.97, -12)"><path class="c" d="M49.8,26l.231,1.386,4.388.924L55.806,29.7l8.314-2.771h5.543q.831,1.755,4.157.924l2.771-.924,1.386.462H78.9l2.309.462a1.983,1.983,0,0,1,2.54-1.386q-.508,1.247.693.924,1.293.6.231,1.155-.277,2.125.924,2.771l-1.617,2.54q-1.386-.416-.693,1.617L85.6,37.316q-.323,1.062.693.693l1.386.924,4.619.462,2.54,1.617,1.617,3H98.3l5.081,2.309h1.848l1.617-1.617q-.924-3.926,1.155-4.85l3.7-.462q1.062,2.771,5.312,1.848l1.155,1.848q.831-1.293,3.7-.462l1.386.924h5.081l2.771-1.848h1.386l1.155.462,1.848,6.236,2.771,3.233,5.081,8.776.924,3.233,1.155,1.155,2.54,1.617,1.386,4.619v2.309l1.155,1.617,3.464,2.54,2.771,6.7a7.411,7.411,0,0,1,6,2.54q-.323,1.062.693.693l3.926,3-1.386,2.771q.369,1.062,2.079.693l2.771,2.309h2.771l1.848-1.386h2.309l2.771-1.848h2.309l4.619-1.386,1.848-1.848.693,3.464q-1.155.693-.462,3.233l-2.309,4.157-4.157,10.624-5.312,6.7-3.926,1.848q.508,1.247-.693.924l-4.388,4.388a21.667,21.667,0,0,1-5.774,7.621l-1.617.462-.462,2.54-2.771,4.619-.462,4.619.462,1.155q1.617-.508.924,3l-.462.924,1.386,5.081,2.309,2.309v.924l-.462.462v9.238l.462,1.386-2.309,4.388-7.621,3.233a13.81,13.81,0,0,1-7.621,5.543q-.739.97-.462,3.464l.924.924.924,7.39-1.155,3-6.236,1.848-.924,1.617v1.848l.462,1.848-1.386,2.771v1.386l-1.155,1.155-2.079,1.617a5.254,5.254,0,0,0-1.848,3.926q-1.247-.508-.924.693a43.382,43.382,0,0,1-10.393,8.083l-1.848-.462q-.693,1.617-1.386.462l-2.771.462-.462-.462h-5.081l-2.309,1.386-3.7.462-2.54-1.848-.924-2.54q1.293-.785.924-3.233L95.76,207.755l-2.771-2.771q.37-1.94-.924-2.309v-2.309l-1.386-5.543v-3.7l.462-.924-7.852-14.781.462-1.848-.462-.924,2.309-9.007,3.233-2.54q1.247-1.524.924-4.619l-1.848-4.157q1.2-.647.924-2.771l-.924-.924L85.136,141.7v-1.386l-2.771-4.388-1.848-1.155q.323-1.2-.924-.693v-1.155l-1.848-1.386-.924-2.309.924-1.386v-2.771l.924-.924.924-3.233v-3.7l-1.155-2.079-1.617-1.155q.37-1.016-.693-.693h-.924l-2.309.462L71.51,113.3l-2.309.462-1.155-1.155-1.617-3.926-2.309-.924H56.268l-2.309,1.386H51.187a8.782,8.782,0,0,1-5.543,1.848L42.873,109.6l-5.081-.462-7.39,1.848-4.85-3.464q.37-1.016-.693-.693l-7.621-6.7L15.39,93.667,9.617,86.046,8,84.891,9.386,82.12,8,78.425l2.309-2.309a6.954,6.954,0,0,1,2.309-5.081l.462-6.467q1.293-.323.924-2.309l-1.386-1.848V58.564l4.85-5.312,3.464-3,1.386-3a4.42,4.42,0,0,0,4.157-2.54l.693-1.155q6.42-.277,9.469-3.926l.924-4.157,1.848-3,3.464-1.848h1.848Zm105.081,80.831a3.308,3.308,0,0,0-1.848,3.233l1.386.462,1.386-1.848ZM149.8,111.45l-1.386,2.309v2.309l3.233,4.619.924-.462q0-2.771-1.848-3.7l.462-.924q-.462-1.848,1.386-1.386l.462-1.386-1.386-.924-.924.462Q151.187,110.988,149.8,111.45ZM69.432,124.845q-.462,1.848.924,1.386Q70.818,124.383,69.432,124.845Zm72.517,0-2.771.924-1.848,2.309v6l1.386,1.386q.924-1.386,4.619-.924l.924-1.386v-.924l.462-2.309,2.309-1.848-.462-1.848q-2.31.462-1.848-.924Zm3.233,24.48q-1.386.462-.462,1.386l-.462.462-.462,7.852-.924,2.309,1.386,6,2.309,1.848q-.462,1.848,1.848.924v-3.233l-2.309-3.233q0-2.31,1.386-2.309l-.924-2.309-.462-6.928-.462-.462.462-1.386Z" transform="translate(7 -14)"/></g></g><g class="i" transform="matrix(1, 0, 0, 1, 1989.03, 4898.84)"><text class="d" transform="translate(210.97 53.16)"><tspan x="0" y="0">A</tspan><tspan class="e" y="0">frican</tspan><tspan class="e"><tspan x="0" y="53">A</tspan><tspan class="f" y="53">gricultural</tspan><tspan x="0" y="100">P</tspan><tspan class="f" y="100">rofessionals in</tspan><tspan x="0" y="147">E</tspan><tspan class="f" y="147">urope</tspan></tspan></text></g></g></svg>