<svg xmlns="http://www.w3.org/2000/svg" xmlns:xlink="http://www.w3.org/1999/xlink" width="283.971" height="138.16" viewBox="0 0 283.971 138.16"><defs><style>.a{fill:rgba(0,0,0,0);stroke:rgba(0,0,0,0);}.b{fill:#d2d2d2;}.c{fill:url(#a);}.d{fill:#6b8e23;font-size:30px;font-family:JosefinSans-Bold, Josefin Sans;font-weight:700;}.e{font-size:22px;}.f{font-family:JosefinSans-Regular, Josefin Sans;font-weight:400;}.g{stroke:none;}.h{fill:none;}.i{filter:url(#d);}.j{filter:url(#b);}</style><linearGradient id="a" x1="0.573" y1="0.655" x2="0.576" y2="-0.038" gradientUnits="objectBoundingBox"><stop offset="0" stop-color="#6b8e23"/><stop offset="1" stop-color="#fff"/></linearGradient><filter id="b" x="0" y="0" width="126.744" height="136.32" filterUnits="userSpaceOnUse"><feOffset dy="3" input="SourceAlpha"/><feGaussianBlur stdDeviation="5" result="c"/><feFlood/><feComposite operator="in" in2="c"/><feComposite in="SourceGraphic"/></filter><filter id="d" x="112.971" y="6.16" width="171" height="132" filterUnits="userSpaceOnUse"><feOffset dy="3" input="SourceAlpha"/><feGaussianBlur stdDeviation="3" result="e"/><feFlood flood-opacity="0.129"/><feComposite operator="in" in2="e"/><feComposite in="SourceGraphic"/></filter></defs><g transform="translate(-1989.029 -4898.84)"><g transform="translate(2014 4914)"><g class="a" transform="translate(-10 -3)"><rect class="g" width="96.772" height="106"/><rect class="h" x="0.5" y="0.5" width="95.772" height="105"/></g><path class="b" d="M314.5,215q2.8,1.3,1.5,6.5l-2-1,1-3Z" transform="translate(-249.01 -171.862)"/><g class="j" transform="matrix(1, 0, 0, 1, -24.97, -15.16)"><path class="c" d="M30.222,26l.123.737,2.333.491.737.737,4.42-1.473H40.78q.442.933,2.21.491l1.473-.491.737.246h.491l1.228.246a1.054,1.054,0,0,1,1.35-.737q-.27.663.368.491.688.319.123.614-.147,1.129.491,1.473l-.859,1.35q-.737-.221-.368.859l1.228.982q-.172.565.368.368l.737.491,2.455.246,1.35.859.859,1.6H56L58.7,36.8h.982l.859-.859q-.491-2.087.614-2.578l1.964-.246q.565,1.473,2.824.982l.614.982Q67,34.4,68.526,34.84l.737.491h2.7l1.473-.982h.737l.614.246.982,3.315,1.473,1.719,2.7,4.665.491,1.719.614.614,1.35.859.737,2.455v1.228l.614.859,1.842,1.35,1.473,3.56a3.94,3.94,0,0,1,3.192,1.35q-.172.565.368.368l2.087,1.6-.737,1.473q.2.565,1.1.368l1.473,1.228h1.473l.982-.737h1.228L99.71,61.6h1.228l2.455-.737.982-.982.368,1.842q-.614.368-.246,1.719l-1.228,2.21-2.21,5.647-2.824,3.56-2.087.982q.27.663-.368.491l-2.333,2.333a11.518,11.518,0,0,1-3.069,4.051l-.859.246-.246,1.35L87.8,86.772l-.246,2.455.246.614q.859-.27.491,1.6l-.246.491.737,2.7,1.228,1.228v.491l-.246.246V101.5l.246.737-1.228,2.333-4.051,1.719a7.341,7.341,0,0,1-4.051,2.947,2.668,2.668,0,0,0-.246,1.842l.491.491.491,3.929-.614,1.6-3.315.982-.491.859v.982l.246.982-.737,1.473v.737l-.614.614-1.1.859a2.793,2.793,0,0,0-.982,2.087q-.663-.27-.491.368a23.062,23.062,0,0,1-5.525,4.3l-.982-.246q-.368.859-.737.246l-1.473.246-.246-.246h-2.7l-1.228.737-1.964.246-1.35-.982-.491-1.35q.688-.417.491-1.719l-2.455-5.647-1.473-1.473q.2-1.031-.491-1.228v-1.228l-.737-2.947v-1.964l.246-.491-4.174-7.857.246-.982-.246-.491,1.228-4.788,1.719-1.35a3.264,3.264,0,0,0,.491-2.455l-.982-2.21q.638-.344.491-1.473l-.491-.491-1.473-3.683v-.737l-1.473-2.333-.982-.614q.172-.638-.491-.368v-.614l-.982-.737-.491-1.228.491-.737V78.669l.491-.491.491-1.719V74.495l-.614-1.1-.859-.614q.2-.54-.368-.368h-.491l-1.228.246-.737-.246-1.228.246-.614-.614-.859-2.087-1.228-.491H33.659l-1.228.737H30.958a4.668,4.668,0,0,1-2.947.982l-1.473-.737-2.7-.246-3.929.982-2.578-1.842q.2-.54-.368-.368l-4.051-3.56-.982-3.438L8.859,57.92,8,57.307l.737-1.473L8,53.869l1.228-1.228a3.7,3.7,0,0,1,1.228-2.7L10.7,46.5q.688-.172.491-1.228l-.737-.982v-.982l2.578-2.824,1.842-1.6.737-1.6a2.35,2.35,0,0,0,2.21-1.35l.368-.614a6.586,6.586,0,0,0,5.034-2.087l.491-2.21.982-1.6,1.842-.982h.982ZM86.082,68.97a1.759,1.759,0,0,0-.982,1.719l.737.246.737-.982Zm-2.7,2.455-.737,1.228v1.228l1.719,2.455.491-.246a1.98,1.98,0,0,0-.982-1.964l.246-.491q-.246-.982.737-.737l.246-.737-.737-.491-.491.246Q84.118,71.18,83.381,71.425ZM40.657,78.546q-.246.982.491.737Q41.394,78.3,40.657,78.546Zm38.55,0-1.473.491-.982,1.228v3.192l.737.737q.491-.737,2.455-.491l.491-.737v-.491l.246-1.228,1.228-.982-.246-.982q-1.228.246-.982-.491ZM80.926,91.56q-.737.246-.246.737l-.246.246-.246,4.174L79.7,97.944l.737,3.192,1.228.982q-.246.982.982.491V100.89l-1.228-1.719q0-1.228.737-1.228l-.491-1.228-.246-3.683-.246-.246.246-.737Z" transform="translate(7 -14)"/></g></g><g class="i" transform="matrix(1, 0, 0, 1, 1989.03, 4898.84)"><text class="d" transform="translate(121.97 35.16)"><tspan x="0" y="0">A</tspan><tspan class="e" y="0">frican</tspan><tspan class="e"><tspan x="0" y="31">A</tspan><tspan class="f" y="31">gricultural</tspan><tspan x="0" y="58">P</tspan><tspan class="f" y="58">rofessionals in</tspan><tspan x="0" y="85">E</tspan><tspan class="f" y="85">urope</tspan></tspan></text></g></g></svg>